<?xml version="1.0" encoding="UTF-8" standalone="no"?>
<!-- Created with Inkscape (http://www.inkscape.org/) -->

<svg
   width="512"
   height="512"
   viewBox="0 0 135.46666 135.46667"
   version="1.1"
   id="svg5"
   inkscape:version="1.1.2 (b8e25be833, 2022-02-05)"
   sodipodi:docname="camera2.svg"
   xmlns:inkscape="http://www.inkscape.org/namespaces/inkscape"
   xmlns:sodipodi="http://sodipodi.sourceforge.net/DTD/sodipodi-0.dtd"
   xmlns="http://www.w3.org/2000/svg"
   xmlns:svg="http://www.w3.org/2000/svg">
  <sodipodi:namedview
     id="namedview7"
     pagecolor="#ffffff"
     bordercolor="#666666"
     borderopacity="1.0"
     inkscape:pageshadow="2"
     inkscape:pageopacity="0.0"
     inkscape:pagecheckerboard="true"
     inkscape:document-units="px"
     showgrid="false"
     units="px"
     inkscape:zoom="0.77771465"
     inkscape:cx="179.3717"
     inkscape:cy="148.51205"
     inkscape:window-width="1340"
     inkscape:window-height="1082"
     inkscape:window-x="458"
     inkscape:window-y="141"
     inkscape:window-maximized="0"
     inkscape:current-layer="a20" />
  <defs
     id="defs2" />
  <g
     inkscape:groupmode="layer"
     id="layer2"
     inkscape:label="배경 3000"
     style="opacity:1">
    <rect
       style="opacity:1;fill:#ceedef;fill-opacity:1;fill-rule:evenodd;stroke:#28a8c8;stroke-width:5.09273;stroke-linecap:butt;stroke-miterlimit:4;stroke-dasharray:none;stroke-opacity:1"
       id="rect66"
       width="130.37393"
       height="130.37393"
       x="2.5463657"
       y="2.5463674" />
  </g>
  <g
     inkscape:label="레이어 1"
     inkscape:groupmode="layer"
     id="layer1">
    <path
       style="fill:#28a8c8;fill-opacity:1;stroke-width:0.264583"
       d="m 24.041043,95.805952 c -4.119343,-1.40388 -6.961621,-4.52553 -7.866809,-8.640061 -0.386196,-1.75545 -0.364879,-51.408413 0.02285,-53.234374 0.736028,-3.466194 3.299354,-6.705724 6.50899,-8.226056 l 1.792243,-0.848946 9.521597,-0.132291 9.521598,-0.132292 0.206296,-1.435152 c 0.41734,-2.90333 2.425785,-5.566902 5.166169,-6.851308 l 1.513507,-0.709373 16.271876,-0.07788 c 11.8622,-0.05677 16.594535,0.0066 17.4625,0.233851 3.581223,0.937627 6.266919,3.952634 6.743939,7.570859 l 0.18152,1.376835 9.567991,0.07837 9.568,0.07837 1.71979,0.819516 c 2.11736,1.008967 4.09261,2.76724 5.21432,4.641539 1.71631,2.867838 1.66485,1.939521 1.66485,30.035678 0,17.620734 -0.0904,25.895534 -0.29334,26.865764 -0.62056,2.966051 -2.93041,6.155511 -5.56971,7.690701 -2.73808,1.59265 -0.45406,1.51723 -45.720137,1.50976 l -41.41785,-0.007 z m 85.653107,-5.01545 c 1.43216,-0.64472 2.72874,-1.923507 3.40678,-3.360031 0.55882,-1.18395 0.56239,-1.33075 0.63592,-26.180389 0.0517,-17.483354 -0.0138,-25.412684 -0.21835,-26.397717 -0.37736,-1.817759 -1.61205,-3.42895 -3.28971,-4.292861 L 108.91623,29.883599 98.132149,29.751307 87.348068,29.619015 86.63704,28.907576 c -0.651828,-0.652206 -0.724408,-0.938581 -0.871734,-3.439584 -0.181117,-3.07463 -0.45507,-3.711214 -1.923629,-4.469938 -0.934522,-0.482816 -1.722038,-0.507144 -16.404167,-0.506753 -17.192189,4.5e-4 -16.606005,-0.05941 -17.864644,1.824654 -0.505401,0.756541 -0.600585,1.251334 -0.600585,3.121994 0,2.432368 -0.354997,3.468406 -1.366491,3.988033 -0.442963,0.22756 -3.614005,0.337266 -11.201218,0.387519 -10.5175,0.06966 -10.590536,0.07394 -11.741229,0.687835 -1.428477,0.762094 -2.336942,1.705156 -2.973194,3.086429 -0.462938,1.005015 -0.48779,2.361727 -0.493308,26.929853 -0.0064,28.543567 -0.102477,26.882673 1.661244,28.721364 1.026473,1.07011 1.983253,1.59381 3.446388,1.88639 0.607346,0.12145 19.38036,0.20299 41.717808,0.18119 38.498209,-0.0376 40.668659,-0.0644 41.671869,-0.51606 z M 62.565298,84.097891 C 55.45557,82.696051 49.077416,77.743691 45.820744,71.096461 43.930058,67.237357 43.285953,63.965787 43.488884,59.252349 44.167556,43.48905 59.705136,32.84744 74.901448,37.738038 c 7.977185,2.567281 14.276875,9.65958 15.986105,17.997427 0.534532,2.607521 0.535556,7.06402 0.0021,9.679601 -1.93023,9.466285 -9.45506,16.835635 -19.120456,18.725395 -2.405775,0.47037 -6.703338,0.45049 -9.204021,-0.0426 z m 7.885972,-4.99444 c 4.303612,-0.75049 7.76114,-2.62357 10.724314,-5.80979 3.347281,-3.599232 4.852792,-7.501977 4.855179,-12.586104 C 86.034863,52.049988 80.842768,45.1366 72.387906,42.541662 71.143002,42.15958 70.001018,42.06025 67.09624,42.081388 c -3.299717,0.02402 -3.919803,0.103838 -5.679062,0.731115 -5.667555,2.0208 -9.747034,6.094664 -11.834699,11.818416 -0.661795,1.814447 -0.721466,2.29933 -0.731531,5.944346 -0.0096,3.491468 0.06426,4.191482 0.614479,5.820834 2.272562,6.729652 7.714441,11.442252 14.669927,12.703992 2.553562,0.46322 3.675435,0.46382 6.315916,0.003 z m 29.71788,-33.6522 c -1.261655,-0.665131 -1.93846,-1.406837 -2.409709,-2.640785 -0.863465,-2.26095 0.15802,-4.825381 2.343499,-5.883355 3.63573,-1.760027 7.46287,1.316162 6.69955,5.384985 -0.21533,1.147821 -1.55479,2.735268 -2.7181,3.221332 -1.13426,0.473921 -2.93196,0.436189 -3.91524,-0.08218 z"
       id="path11773" />
    <a
       id="a20">
      <g
         aria-label="촬영"
         id="text17610"
         style="font-size:16.9333px;line-height:1.25;font-family:KoPubWorldDotum_Pro;-inkscape-font-specification:KoPubWorldDotum_Pro;fill:#28a8c8;stroke-width:0.264583"
         transform="translate(-1.7010309)">
        <path
           d="m 63.764005,109.22888 c -1.69333,-0.22013 -2.726262,-0.7112 -3.200394,-1.45626 h 2.675461 v -1.33773 h -7.755451 v 1.33773 h 2.607728 c -0.423332,0.77893 -1.59173,1.33773 -3.471326,1.6764 l 1.083731,1.23613 c 1.777996,-0.33867 2.963327,-0.9652 3.640659,-1.84573 0.660399,0.74506 1.811863,1.32079 3.505193,1.64253 z m -2.218263,-4.69052 h -4.419591 v 1.30386 h 4.419591 z m 2.743195,6.60399 c -0.626532,0.11853 -1.371597,0.18626 -2.099729,0.23706 -0.694266,0.0508 -1.388531,0.0847 -1.84573,0.0847 v -1.43933 h -1.981196 v 1.49013 h -4.047059 v 1.40546 h 4.419591 c 1.032932,0 2.065863,-0.0339 3.081861,-0.1016 1.015998,-0.0677 1.879596,-0.16933 2.472262,-0.254 z m 2.285995,-1.64253 h 1.964263 v -1.64253 h -1.964263 v -3.18347 h -1.896529 v 8.51745 h 1.896529 z m 0.3556,8.82224 h -8.331184 v -0.98213 H 66.1008 c 0.338666,0 0.474132,-0.11853 0.474132,-0.47413 v -2.67546 c 0,-0.32173 -0.152399,-0.47413 -0.474132,-0.47413 h -9.567315 v 1.40546 h 8.009451 v 0.94827 h -7.535318 c -0.355599,0 -0.474133,0.13546 -0.474133,0.47413 v 2.70933 c 0,0.3556 0.118534,0.47413 0.474133,0.47413 h 9.922914 z"
           style="font-weight:bold;-inkscape-font-specification:'KoPubWorldDotum_Pro Bold'"
           id="path24" />
        <path
           d="m 81.730231,104.67382 h -1.896529 v 1.55787 h -3.318927 c -0.728132,-0.82973 -1.828797,-1.38853 -3.132661,-1.38853 -1.168397,0 -2.167462,0.4572 -2.895594,1.15146 -0.694265,0.69427 -1.117598,1.6764 -1.117598,2.76013 0,1.10066 0.423333,2.0828 1.117598,2.77706 0.728132,0.69427 1.727197,1.1176 2.895594,1.1176 1.422397,0 2.523062,-0.5588 3.251194,-1.50706 h 3.200394 v 2.64159 h 1.896529 z m -4.402658,4.89373 c 0.0508,-0.32173 0.08467,-0.59267 0.08467,-0.8128 0,-0.33867 -0.0508,-0.64347 -0.118533,-0.9652 h 2.539995 v 1.778 z m -3.945459,1.4732 c -0.660398,0 -1.168397,-0.22014 -1.54093,-0.67734 -0.372533,-0.4572 -0.558799,-0.98213 -0.558799,-1.60866 0,-1.28693 0.795865,-2.286 2.099729,-2.286 1.286931,0 2.099729,1.016 2.099729,2.286 0,0.62653 -0.186266,1.15146 -0.575732,1.60866 -0.372532,0.4572 -0.880531,0.67734 -1.523997,0.67734 z m 8.195717,7.24745 c 0.287867,-0.38947 0.423333,-0.84667 0.423333,-1.3716 0,-1.016 -0.592666,-1.81186 -1.557864,-2.35373 -0.965198,-0.54186 -2.319862,-0.84666 -3.877725,-0.84666 -1.507064,0 -2.827861,0.3048 -3.843859,0.84666 -0.474133,0.254 -0.863599,0.59267 -1.151465,1.016 -0.287866,0.38947 -0.423332,0.82973 -0.423332,1.33773 0,1.03293 0.575732,1.8288 1.54093,2.37066 0.965198,0.54187 2.302929,0.8128 3.860792,0.8128 1.574797,0 2.878661,-0.27093 3.894659,-0.8128 0.474133,-0.254 0.846665,-0.59266 1.134531,-0.99906 z m -5.012256,0.32173 c -0.999065,0 -1.79493,-0.1524 -2.421462,-0.47413 -0.626532,-0.3048 -0.948265,-0.72813 -0.948265,-1.25307 0,-1.03293 1.405464,-1.65946 3.369727,-1.65946 2.015062,0 3.369726,0.59267 3.369726,1.65946 0,0.52494 -0.321732,0.94827 -0.948264,1.23614 -0.592666,0.32173 -1.405464,0.49106 -2.421462,0.49106 z"
           style="font-weight:bold;-inkscape-font-specification:'KoPubWorldDotum_Pro Bold'"
           id="path26" />
      </g>
    </a>
  </g>
</svg>
