<?xml version="1.0" encoding="UTF-8" standalone="no"?>
<!-- Created with Inkscape (http://www.inkscape.org/) -->

<svg
   width="512"
   height="512"
   viewBox="0 0 135.46666 135.46667"
   version="1.1"
   id="svg5"
   inkscape:version="1.1.2 (b8e25be833, 2022-02-05)"
   sodipodi:docname="cancel_btn.svg"
   xmlns:inkscape="http://www.inkscape.org/namespaces/inkscape"
   xmlns:sodipodi="http://sodipodi.sourceforge.net/DTD/sodipodi-0.dtd"
   xmlns="http://www.w3.org/2000/svg"
   xmlns:svg="http://www.w3.org/2000/svg">
  <sodipodi:namedview
     id="namedview7"
     pagecolor="#ffffff"
     bordercolor="#666666"
     borderopacity="1.0"
     inkscape:pageshadow="2"
     inkscape:pageopacity="0.0"
     inkscape:pagecheckerboard="true"
     inkscape:document-units="px"
     showgrid="false"
     units="px"
     inkscape:zoom="0.77771465"
     inkscape:cx="124.72441"
     inkscape:cy="148.51205"
     inkscape:window-width="1340"
     inkscape:window-height="1080"
     inkscape:window-x="483"
     inkscape:window-y="56"
     inkscape:window-maximized="0"
     inkscape:current-layer="text18654" />
  <defs
     id="defs2" />
  <g
     inkscape:groupmode="layer"
     id="layer2"
     inkscape:label="배경 3000"
     style="opacity:1">
    <rect
       style="opacity:1;fill:none;fill-opacity:1;fill-rule:evenodd;stroke:#f7655c;stroke-width:5.09273;stroke-linecap:butt;stroke-miterlimit:4;stroke-dasharray:none;stroke-opacity:1"
       id="rect66"
       width="130.37393"
       height="130.37393"
       x="2.5463657"
       y="2.5463674" />
  </g>
  <g
     inkscape:groupmode="layer"
     id="layer3"
     inkscape:label="배경 8998">
    <path
       style="fill:#000000;stroke-width:0.174957"
       id="path1015"
       d="" />
    <path
       style="fill:#000000;stroke-width:0.174957"
       id="path977"
       d="" />
    <path
       style="fill:#000000;stroke-width:0.174957"
       id="path957"
       d="" />
    <path
       style="fill:#f7655c;fill-opacity:1;stroke-width:0.211426"
       d="m 65.834108,95.933575 c -1.064262,-0.259093 -1.930492,-0.806735 -2.70232,-1.708444 -1.987365,-2.321788 -1.413895,-5.872978 1.21062,-7.49673 l 1.034235,-0.639869 7.945787,-0.133247 c 8.478076,-0.142173 9.021736,-0.204489 12.580026,-1.441913 6.23845,-2.169471 11.64306,-7.795461 13.719837,-14.281798 0.901997,-2.817215 1.083037,-4.059405 1.063067,-7.294201 -0.0158,-2.560622 -0.10678,-3.399148 -0.55222,-5.089824 -1.172064,-4.448549 -3.175024,-7.945932 -6.287434,-10.978561 -2.98871,-2.9121 -6.6827,-4.928461 -10.92828,-5.965191 -1.828,-0.446377 -2.22923,-0.455712 -22.871313,-0.532142 -17.873905,-0.06618 -20.993839,-0.03392 -20.897894,0.216109 0.06203,0.161646 1.06674,1.733299 2.232689,3.492563 2.266938,3.42051 2.548317,4.173204 2.26538,6.059965 -0.202051,1.34737 -1.267218,2.804781 -2.58916,3.542613 -0.89351,0.498706 -1.35019,0.612426 -2.459423,0.612426 -1.534422,0 -2.45328,-0.316017 -3.510432,-1.207324 -0.955815,-0.805865 -13.287056,-16.2125 -13.56829,-16.952202 -0.119969,-0.315543 -0.159084,-0.888429 -0.08692,-1.273081 0.179483,-0.956724 12.623802,-16.575833 13.963563,-17.525942 4.19455,-2.974616 9.722895,1.0467 8.031084,5.841806 -0.172356,0.488505 -1.218916,2.208262 -2.325687,3.82168 -1.106773,1.61342 -2.012316,2.979294 -2.012316,3.035278 0,0.05598 9.49039,0.139222 21.089755,0.184976 18.406468,0.0726 21.332654,0.127406 22.998894,0.430711 7.31169,1.33096 13.27002,4.431017 18.274054,9.50782 4.3399,4.403 7.375,9.998282 8.68885,16.018112 1.58654,7.269263 0.67403,14.664003 -2.64745,21.454323 -5.09086,10.407584 -14.919914,17.151984 -26.647444,18.284671 -2.431376,0.234831 -14.06276,0.248327 -15.011255,0.01742 z"
       id="path16848" />
  </g>
  <g
     inkscape:label="레이어 1"
     inkscape:groupmode="layer"
     id="layer1">
    <g
       aria-label="종료"
       id="text3449"
       style="font-size:14.8167px;line-height:1.25;font-family:KoPubWorldDotum_Pro;-inkscape-font-specification:KoPubWorldDotum_Pro;stroke-width:0.264583"
       transform="translate(-3.7041668,-1.0583333)">
      <g
         aria-label="다시 찍기"
         id="text18654"
         style="font-size:14.1111px;stroke-width:0.0700042">
        <path
           d="m 54.446965,115.26307 c -0.169333,0.0423 -0.832555,0.15522 -1.622777,0.254 -0.790221,0.0988 -1.735665,0.18344 -2.412998,0.18344 h -1.566332 v -6.11011 h 4.219219 v -1.34055 h -5.404551 c -0.296333,0 -0.395111,0.11289 -0.395111,0.39511 v 8.02922 c 0,0.29633 0.08467,0.39511 0.381,0.39511 h 2.144887 c 1.015999,0 2.074332,-0.0847 2.935109,-0.19756 0.860777,-0.11289 1.509887,-0.21166 1.721554,-0.254 z m 2.088443,-2.01789 h 1.707443 v -1.42522 h -1.707443 v -4.318 h -1.580443 v 12.61533 h 1.580443 z"
           style="font-weight:bold;-inkscape-font-specification:'KoPubWorldDotum_Pro Bold';fill:#f7655c"
           id="path36823" />
        <path
           d="m 66.709507,116.43429 c -2.215443,-1.29822 -3.273775,-3.28789 -3.259664,-5.67266 v -2.794 h -1.679221 v 2.70933 c 0,2.48355 -1.03011,4.61433 -3.400775,6.06777 l 1.326443,1.04422 c 0.635,-0.46566 1.326444,-1.10066 1.848554,-1.76388 0.550333,-0.635 0.931333,-1.29822 1.086555,-1.80622 0.564444,1.29822 1.749776,2.49766 2.906887,3.28788 z m 2.723442,-8.93233 h -1.594554 v 12.62944 h 1.594554 z"
           style="font-weight:bold;-inkscape-font-specification:'KoPubWorldDotum_Pro Bold';fill:#f7655c"
           id="path36825" />
        <path
           d="m 83.755725,113.55562 c -1.241777,-0.84666 -1.806221,-2.07433 -1.806221,-3.66888 v -0.53622 h 1.326443 v -1.31234 h -3.697108 v 1.31234 h 0.818444 v 0.56444 c 0,1.12889 -0.296333,2.159 -0.917222,2.89278 -0.606777,-0.67734 -0.917221,-1.67923 -0.917221,-2.87867 v -0.57855 h 0.832555 v -1.31234 h -3.682997 v 1.31234 h 1.326443 v 0.59266 c 0,1.76389 -0.832555,3.00567 -2.187221,3.86644 l 1.255888,0.95956 c 0.677333,-0.56445 1.326444,-1.34056 1.707444,-2.07433 0.451555,0.84666 1.044221,1.55222 1.665109,2.04611 0.733778,-0.56445 1.269999,-1.28411 1.66511,-2.07434 0.409222,0.79023 0.959555,1.397 1.580443,1.91911 z m 2.342442,-6.05366 h -1.580443 v 7.60588 h 1.580443 z m 0.01411,8.55133 c 0,-0.26811 -0.126999,-0.39511 -0.39511,-0.39511 H 77.27873 v 1.32644 h 7.238994 v 3.21733 h 1.594554 z"
           style="font-weight:bold;-inkscape-font-specification:'KoPubWorldDotum_Pro Bold';fill:#f7655c"
           id="path36827" />
        <path
           d="m 89.075606,117.77484 c 3.443109,-2.159 5.094108,-5.24933 5.319885,-9.1581 0,-0.26811 -0.127,-0.39511 -0.395111,-0.39511 h -5.573884 v 1.35466 h 4.190997 c -0.211667,3.11856 -1.834443,5.48922 -4.882441,7.14022 z m 9.073438,-10.27288 H 96.55449 v 12.62944 h 1.594554 z"
           style="font-weight:bold;-inkscape-font-specification:'KoPubWorldDotum_Pro Bold';fill:#f7655c"
           id="path36829" />
      </g>
    </g>
  </g>
</svg>
