<?xml version="1.0" encoding="UTF-8" standalone="no"?>
<!-- Created with Inkscape (http://www.inkscape.org/) -->

<svg
   width="512"
   height="512"
   viewBox="0 0 135.46666 135.46667"
   version="1.1"
   id="svg5"
   inkscape:version="1.1.2 (b8e25be833, 2022-02-05)"
   sodipodi:docname="close_btn.svg"
   xmlns:inkscape="http://www.inkscape.org/namespaces/inkscape"
   xmlns:sodipodi="http://sodipodi.sourceforge.net/DTD/sodipodi-0.dtd"
   xmlns="http://www.w3.org/2000/svg"
   xmlns:svg="http://www.w3.org/2000/svg">
  <sodipodi:namedview
     id="namedview7"
     pagecolor="#ffffff"
     bordercolor="#666666"
     borderopacity="1.0"
     inkscape:pageshadow="2"
     inkscape:pageopacity="0.0"
     inkscape:pagecheckerboard="true"
     inkscape:document-units="px"
     showgrid="false"
     units="px"
     inkscape:zoom="0.77771465"
     inkscape:cx="124.72441"
     inkscape:cy="148.51205"
     inkscape:window-width="1340"
     inkscape:window-height="1080"
     inkscape:window-x="483"
     inkscape:window-y="56"
     inkscape:window-maximized="0"
     inkscape:current-layer="layer1" />
  <defs
     id="defs2" />
  <g
     inkscape:groupmode="layer"
     id="layer2"
     inkscape:label="배경 3000"
     style="opacity:1">
    <rect
       style="opacity:1;fill:none;fill-opacity:1;fill-rule:evenodd;stroke:#f7655c;stroke-width:5.09273;stroke-linecap:butt;stroke-miterlimit:4;stroke-dasharray:none;stroke-opacity:1"
       id="rect66"
       width="130.37393"
       height="130.37393"
       x="2.5463657"
       y="2.5463674" />
  </g>
  <g
     inkscape:groupmode="layer"
     id="layer3"
     inkscape:label="배경 8998">
    <g
       id="g1035"
       transform="translate(1.6256013,8.0514174)"
       style="fill:#f7655c;fill-opacity:1">
      <path
         style="fill:#f7655c;fill-opacity:1;stroke-width:0.174957"
         d="m 110.05424,101.39421 c 0,-0.0363 0.13778,-0.17411 0.30617,-0.30617 0.2775,-0.21763 0.28368,-0.21144 0.0661,0.066 -0.22856,0.29144 -0.37223,0.38412 -0.37223,0.24012 z M 27.616479,13.337162 c 0.126297,-0.05054 0.277198,-0.04432 0.335335,0.01381 0.05814,0.05814 -0.0452,0.09949 -0.229632,0.09189 -0.203815,-0.0084 -0.245273,-0.04985 -0.105703,-0.105703 z m 78.905801,0 c 0.1263,-0.05054 0.2772,-0.04432 0.33534,0.01381 0.0581,0.05814 -0.0452,0.09949 -0.22963,0.09189 -0.20382,-0.0084 -0.24527,-0.04985 -0.10571,-0.105703 z"
         id="path1043" />
      <path
         style="fill:#f7655c;fill-opacity:1;stroke-width:0.174957"
         d="m 28.141351,13.337162 c 0.126297,-0.05054 0.277198,-0.04432 0.335335,0.01381 0.05814,0.05814 -0.0452,0.09949 -0.229632,0.09189 -0.203815,-0.0084 -0.245272,-0.04985 -0.105703,-0.105703 z m 77.856059,0 c 0.1263,-0.05054 0.2772,-0.04432 0.33534,0.01381 0.0581,0.05814 -0.0452,0.09949 -0.22963,0.09189 -0.20382,-0.0084 -0.24528,-0.04985 -0.10571,-0.105703 z"
         id="path1041" />
      <path
         style="fill:#f7655c;fill-opacity:1;stroke-width:0.174957"
         d="M 49.562702,83.877047 67.189664,66.206562 84.729148,83.789568 102.26863,101.37257 84.729148,83.877264 67.189663,66.381957 49.562702,83.964744 31.93574,101.54753 Z m -25.93744,9.644081 c 0,-0.03633 0.137779,-0.174109 0.306176,-0.306176 0.277492,-0.217624 0.28368,-0.211436 0.06606,0.06606 -0.228559,0.291436 -0.372232,0.384116 -0.372232,0.240119 z M 41.383113,40.531341 23.887698,22.991858 41.427182,40.487273 c 9.646715,9.622479 17.539483,17.515246 17.539483,17.539483 0,0.02424 -0.01983,0.04407 -0.04407,0.04407 -0.02424,0 -7.917005,-7.892767 -17.539484,-17.539483 z m 51.437816,0.04374 c 9.622301,-9.62266 17.534451,-17.495744 17.582571,-17.495744 0.0481,0 -7.78531,7.873084 -17.407613,17.495744 -9.622299,9.622659 -17.534453,17.495743 -17.582567,17.495743 -0.04811,0 7.785311,-7.873084 17.407609,-17.495743 z"
         id="path1039" />
      <path
         style="fill:#f7655c;fill-opacity:1;stroke-width:0.174957"
         d="m 26.425524,102.57871 c -3.53136,-1.28315 -5.004859,-5.280842 -3.116996,-8.456602 0.203497,-0.342321 8.328422,-8.594093 18.055391,-18.337271 L 59.049316,58.069969 41.094544,40.093519 C 23.925199,22.903445 23.125741,22.074977 22.819014,21.154805 c -0.50501,-1.515014 -0.411994,-3.079498 0.264831,-4.454325 1.079072,-2.191907 3.032151,-3.34148 5.440225,-3.202089 2.449035,0.141761 1.353549,-0.837959 20.951154,18.737135 L 67.189664,49.929621 84.904105,32.235526 C 99.523208,17.633215 102.78669,14.45694 103.58081,14.057889 c 1.35199,-0.679381 3.19437,-0.783478 4.58417,-0.259013 2.90697,1.096994 4.402,4.335959 3.39533,7.355929 -0.30672,0.920172 -1.10619,1.748653 -18.275939,18.939129 L 75.329187,58.070795 93.015683,75.785251 c 9.727577,9.74295 17.853867,17.996451 18.058437,18.341114 2.36448,3.983793 -0.73231,9.057345 -5.30441,8.690345 -2.23059,-0.17906 -1.21975,0.73583 -20.690647,-18.726506 L 67.189664,66.208674 49.300266,84.090204 c -15.027169,15.02056 -18.02936,17.943126 -18.764185,18.266526 -1.154496,0.50809 -3.042534,0.61005 -4.110557,0.22198 z"
         id="path1037" />
    </g>
    <path
       style="fill:#000000;stroke-width:0.174957"
       id="path1015"
       d="" />
    <path
       style="fill:#000000;stroke-width:0.174957"
       id="path977"
       d="" />
    <path
       style="fill:#000000;stroke-width:0.174957"
       id="path957"
       d="" />
  </g>
  <g
     inkscape:label="레이어 1"
     inkscape:groupmode="layer"
     id="layer1">
    <g
       aria-label="종료"
       id="text3449"
       style="font-size:14.8167px;line-height:1.25;font-family:KoPubWorldDotum_Pro;-inkscape-font-specification:KoPubWorldDotum_Pro;stroke-width:0.264583"
       transform="translate(-0.52916664,-0.52916666)">
      <path
         d="m 68.693193,119.08639 c 0,-1.54094 -1.65947,-2.56329 -4.919144,-2.56329 -3.274491,0 -4.919144,1.02235 -4.919144,2.56329 0,1.55575 1.61502,2.56329 4.919144,2.56329 3.274491,0 4.919144,-1.00754 4.919144,-2.56329 z m -2.711456,0.94826 c -0.548218,0.20744 -1.289053,0.31116 -2.207688,0.31116 -1.911354,0 -3.037423,-0.38524 -3.037423,-1.27424 0,-0.82974 1.126069,-1.27424 3.037423,-1.27424 1.852088,0 3.037424,0.4445 3.037424,1.27424 0,0.4445 -0.281518,0.77047 -0.829736,0.96308 z m 3.318941,-7.8973 c -1.007535,-0.11853 -2.044704,-0.3556 -2.87444,-0.7112 -0.844552,-0.37042 -1.48167,-0.85937 -1.674287,-1.55575 h 3.718992 v -1.40759 h -9.393788 v 1.40759 h 3.704175 c -0.1778,0.60748 -0.740835,1.08162 -1.52612,1.45204 -0.829735,0.37041 -1.866904,0.63711 -3.05224,0.82973 l 1.022352,1.20015 c 0.889002,-0.11853 1.778004,-0.37041 2.563289,-0.7112 0.829735,-0.3556 1.48167,-0.78528 1.955805,-1.36313 0.414867,0.57785 1.111252,1.02235 1.940987,1.36313 0.829736,0.34079 1.718738,0.57785 2.60774,0.7112 z m 0.592668,2.28178 h -5.245112 v -1.64466 H 62.91468 v 1.64466 h -5.245111 v 1.4224 h 12.223777 z"
         style="font-weight:bold;-inkscape-font-specification:'KoPubWorldDotum_Pro Bold';fill:#f7655c"
         id="path16715" />
      <path
         d="m 82.828321,118.59744 h -3.111507 v -2.10398 h 1.778004 v -1.40758 h -7.67505 v -1.79282 h 6.934215 c 0.296334,0 0.414868,-0.10372 0.414868,-0.41487 v -3.79308 c 0,-0.28151 -0.133351,-0.41486 -0.414868,-0.41486 h -8.593686 v 1.40758 h 7.378717 v 1.82246 h -6.949032 c -0.311151,0 -0.414868,0.11853 -0.414868,0.41486 v 3.76345 c 0,0.31115 0.103717,0.41486 0.414868,0.41486 h 1.200152 v 2.10398 h -3.200407 v 1.4224 h 12.238594 z m -7.378716,0 v -2.10398 h 2.607739 v 2.10398 z"
         style="font-weight:bold;-inkscape-font-specification:'KoPubWorldDotum_Pro Bold';fill:#f7655c"
         id="path16717" />
    </g>
  </g>
</svg>
