<?xml version="1.0" encoding="UTF-8" standalone="no"?>
<!-- Created with Inkscape (http://www.inkscape.org/) -->

<svg
   width="512"
   height="512"
   viewBox="0 0 135.46666 135.46667"
   version="1.1"
   id="svg5"
   inkscape:version="1.1.2 (b8e25be833, 2022-02-05)"
   sodipodi:docname="send_btn.svg"
   xmlns:inkscape="http://www.inkscape.org/namespaces/inkscape"
   xmlns:sodipodi="http://sodipodi.sourceforge.net/DTD/sodipodi-0.dtd"
   xmlns="http://www.w3.org/2000/svg"
   xmlns:svg="http://www.w3.org/2000/svg">
  <sodipodi:namedview
     id="namedview7"
     pagecolor="#ffffff"
     bordercolor="#666666"
     borderopacity="1.0"
     inkscape:pageshadow="2"
     inkscape:pageopacity="0.0"
     inkscape:pagecheckerboard="true"
     inkscape:document-units="px"
     showgrid="false"
     units="px"
     inkscape:zoom="0.77771465"
     inkscape:cx="-158.15569"
     inkscape:cy="148.51205"
     inkscape:window-width="2000"
     inkscape:window-height="1138"
     inkscape:window-x="120"
     inkscape:window-y="74"
     inkscape:window-maximized="0"
     inkscape:current-layer="text37703" />
  <defs
     id="defs2" />
  <g
     inkscape:groupmode="layer"
     id="layer2"
     inkscape:label="배경 3000"
     style="opacity:1">
    <rect
       style="opacity:1;fill:none;fill-opacity:1;fill-rule:evenodd;stroke:#28a8c8;stroke-width:5.09273;stroke-linecap:butt;stroke-miterlimit:4;stroke-dasharray:none;stroke-opacity:1"
       id="rect66"
       width="130.37393"
       height="130.37393"
       x="2.5463657"
       y="2.5463674" />
  </g>
  <g
     inkscape:label="레이어 1"
     inkscape:groupmode="layer"
     id="layer1">
    <path
       style="fill:#28a8c8;fill-opacity:1;stroke-width:0.166242"
       d="m 69.067737,99.712533 c -2.04423,-0.542601 -3.91849,-1.874938 -4.951,-3.519482 -0.60836,-0.968979 -7.498902,-17.585974 -7.631711,-18.40439 -0.126406,-0.778941 0.329356,-1.954404 0.96524,-2.489463 1.123452,-0.945323 2.81567,-0.877762 3.823156,0.15264 0.408683,0.417979 1.327015,2.468603 4.049115,9.041595 2.0368,4.918214 3.6905,8.685301 3.9238,8.938281 0.48675,0.527813 1.29413,0.893148 1.97385,0.893148 0.75641,0 1.80159,-0.480272 2.16946,-0.996895 0.31463,-0.441858 28.490603,-68.770372 28.696563,-69.590969 0.3665,-1.46024 -1.15074,-3.223798 -2.773514,-3.223798 -0.516197,0 -68.691009,27.967767 -69.757314,28.616968 -0.636897,0.387762 -1.217054,1.514294 -1.217054,2.363243 0,0.749132 0.505119,1.794777 1.029439,2.131041 0.210992,0.135316 5.982364,2.551356 12.825271,5.368977 l 12.441649,5.122946 6.759358,-6.744936 c 5.937432,-5.924764 6.835882,-6.758852 7.388652,-6.859369 2.35291,-0.42786 4.20195,1.967012 3.12376,4.045901 -0.17594,0.339233 -3.63586,3.918116 -7.68872,7.953074 -7.885666,7.850848 -7.874227,7.841461 -9.341885,7.664764 -0.558199,-0.0672 -25.143244,-10.102828 -27.673372,-11.29628 -0.921775,-0.434799 -2.511909,-1.905489 -3.171342,-2.933127 -1.088167,-1.695761 -1.535946,-3.932577 -1.19019,-5.945421 0.371792,-2.164419 1.834627,-4.442977 3.595319,-5.600184 0.360384,-0.236861 11.203328,-4.780885 24.095432,-10.097831 12.892108,-5.316947 28.568838,-11.7824 34.837178,-14.367673 6.26835,-2.585274 11.7892,-4.784612 12.26857,-4.887417 2.534643,-0.543587 5.367553,0.259141 7.331553,2.077462 1.92707,1.784125 2.70533,3.532196 2.72953,6.130863 0.009,1.017843 -0.0732,1.920258 -0.21322,2.327395 -0.33687,0.979494 -28.402723,69.193277 -28.828543,70.067498 -0.51891,1.06535 -2.33941,2.850997 -3.45983,3.393598 -1.93129,0.935288 -4.19311,1.181738 -6.1292,0.667841 z"
       id="path48029" />
    <g
       aria-label="보내기"
       id="text37703"
       style="font-size:14.8167px;line-height:1.25;font-family:KoPubWorldDotum_Pro;-inkscape-font-specification:KoPubWorldDotum_Pro;stroke-width:0.264583">
      <g
         id="g49261">
        <path
           d="m 53.112584,113.58748 v -2.32623 h 5.763696 v 2.32623 z m 9.008553,4.08941 h -5.274745 v -2.66701 H 60.1357 c 0.296334,0 0.414867,-0.10372 0.414867,-0.41487 v -6.90458 H 58.87628 v 2.16324 h -5.763696 v -2.16324 H 51.42348 v 6.90458 c 0,0.31115 0.0889,0.41487 0.400051,0.41487 h 3.289307 v 2.66701 h -5.245112 v 1.4224 h 12.253411 z"
           style="font-weight:bold;-inkscape-font-specification:'KoPubWorldDotum_Pro Bold';fill:#28a8c8"
           id="path49233" />
        <path
           d="m 69.188699,115.51365 c -0.296334,0.0593 -0.785285,0.13335 -1.259419,0.19261 -0.474135,0.0444 -0.948269,0.0889 -1.229786,0.0889 l -1.140886,0.0296 v -7.91212 h -1.689104 v 8.99374 c 0,0.31115 0.0889,0.41486 0.400051,0.41486 0.01482,0.0148 0.385234,0.0148 0.800102,0 0.414867,0 0.859368,-0.0148 1.037169,-0.0296 0.518584,0 1.155702,-0.0593 1.733554,-0.11853 0.592668,-0.0741 1.096435,-0.16299 1.348319,-0.22225 z m 5.008045,-8.22327 h -1.61502 v 4.45983 h -1.30387 v -4.22276 h -1.61502 v 12.40157 h 1.61502 v -6.54898 h 1.30387 v 7.1861 h 1.61502 z"
           style="font-weight:bold;-inkscape-font-specification:'KoPubWorldDotum_Pro Bold';fill:#28a8c8"
           id="path49235" />
        <path
           d="m 77.486047,118.09175 c 3.615275,-2.26695 5.348829,-5.51181 5.585896,-9.61604 0,-0.28151 -0.13335,-0.41486 -0.414867,-0.41486 h -5.852597 v 1.4224 h 4.40056 c -0.222251,3.27449 -1.926171,5.7637 -5.126578,7.49725 z m 9.527138,-10.78655 h -1.674287 v 13.26094 h 1.674287 z"
           style="font-weight:bold;-inkscape-font-specification:'KoPubWorldDotum_Pro Bold';fill:#28a8c8"
           id="path49237" />
      </g>
    </g>
  </g>
</svg>
